<svg version="1.1" xmlns="http://www.w3.org/2000/svg" viewBox="0 0 500 490" width="500" height="490">
  <g>
    <rect y="51.019" width="100" height="395.791" style="fill: rgb(10, 152, 182);"></rect>
    <rect x="400" y="49.434" width="100" height="400.177" style="fill: rgb(10, 152, 182);"></rect>
    <ellipse style="fill: rgb(157, 194, 255);" cx="250" cy="50" rx="250" ry="50"></ellipse>
    <path d="M 100 53.319 L 400 53.319 L 400 409.996 C 358.217 403.719 306.28 400 250 400 C 193.72 400 141.783 403.719 100 409.996 Z" style="fill: rgb(157, 194, 255);"></path>
    <path d="M 500 450 C 500 466.358 460.722 480.881 400 490.004 L 400 409.996 C 460.722 419.119 500 433.642 500 450 Z M 0 450 C 0 433.642 39.278 419.119 100 409.996 L 100 490.004 C 39.278 480.881 0 466.358 0 450 Z" style="fill: rgb(157, 194, 255);"></path>
    <path d="M 400 409.996 C 358.217 403.719 306.28 400 250 400 C 193.72 400 141.783 403.719 100 409.996 L 100 350.598 L 131.357 297.927 L 247.297 279.598 L 299.794 218.67 L 365.903 281.607 L 400 297.386 Z" style="fill: rgb(233, 233, 233);"></path>
    <ellipse style="fill: rgb(216, 216, 216);" cx="199.748" cy="167.557" rx="32.443" ry="32.443"></ellipse>
  </g>
</svg>
